<svg aria-hidden="true" style="position: absolute; width: 0; height: 0; overflow: hidden;" version="1.1" xmlns="http://www.w3.org/2000/svg" xmlns:xlink="http://www.w3.org/1999/xlink">
<defs>
<symbol id="logo" viewBox="0 0 182 32">
<path d="M14.459 22.029h-7.546l-1.21 3.571h-5.155l7.315-20.218h5.702l7.315 20.218h-5.213l-1.21-3.571zM13.192 18.227l-2.506-7.402-2.477 7.402h4.982zM37.22 29.056l-2.592-3.485c-0.768 0.154-1.517 0.23-2.246 0.23-1.901 0-3.648-0.442-5.242-1.325-1.574-0.883-2.832-2.112-3.773-3.686-0.922-1.594-1.382-3.379-1.382-5.357s0.461-3.754 1.382-5.328c0.941-1.574 2.198-2.803 3.773-3.686 1.594-0.883 3.341-1.325 5.242-1.325s3.638 0.442 5.213 1.325c1.594 0.883 2.842 2.112 3.744 3.686 0.922 1.574 1.382 3.35 1.382 5.328 0 1.728-0.355 3.312-1.066 4.752-0.691 1.421-1.661 2.602-2.909 3.542l4.435 5.328h-5.962zM27.025 15.434c0 1.786 0.48 3.216 1.44 4.291 0.979 1.056 2.285 1.584 3.917 1.584 1.613 0 2.899-0.538 3.859-1.613 0.979-1.075 1.469-2.496 1.469-4.262 0-1.786-0.49-3.206-1.469-4.262-0.96-1.075-2.246-1.613-3.859-1.613-1.632 0-2.938 0.528-3.917 1.584-0.96 1.056-1.44 2.486-1.44 4.291zM50.067 5.382v12.096c0 1.21 0.298 2.141 0.893 2.794s1.469 0.979 2.621 0.979c1.152 0 2.035-0.326 2.65-0.979s0.922-1.584 0.922-2.794v-12.096h4.925v12.067c0 1.805-0.384 3.331-1.152 4.579s-1.805 2.189-3.11 2.822c-1.286 0.634-2.726 0.95-4.32 0.95s-3.024-0.307-4.291-0.922c-1.248-0.634-2.237-1.574-2.966-2.822-0.73-1.267-1.094-2.803-1.094-4.608v-12.067h4.925zM77.833 22.029h-7.546l-1.21 3.571h-5.155l7.315-20.218h5.702l7.315 20.218h-5.213l-1.21-3.571zM76.565 18.227l-2.506-7.402-2.477 7.402h4.982zM100.737 5.382v3.946h-5.357v16.272h-4.925v-16.272h-5.357v-3.946h15.638zM113.231 25.6l-4.205-7.632h-1.181v7.632h-4.925v-20.218h8.266c1.594 0 2.947 0.278 4.061 0.835 1.133 0.557 1.978 1.325 2.534 2.304 0.557 0.96 0.835 2.035 0.835 3.226 0 1.344-0.384 2.544-1.152 3.6-0.749 1.056-1.862 1.805-3.341 2.246l4.666 8.006h-5.558zM107.846 14.483h3.053c0.902 0 1.574-0.221 2.016-0.662 0.461-0.442 0.691-1.066 0.691-1.872 0-0.768-0.23-1.373-0.691-1.814-0.442-0.442-1.114-0.662-2.016-0.662h-3.053v5.011zM134.006 22.029h-7.546l-1.21 3.571h-5.155l7.315-20.218h5.702l7.315 20.218h-5.213l-1.21-3.571zM132.739 18.227l-2.506-7.402-2.477 7.402h4.982zM141.532 15.462c0-1.997 0.432-3.773 1.296-5.328 0.864-1.574 2.064-2.794 3.6-3.658 1.555-0.883 3.312-1.325 5.27-1.325 2.4 0 4.454 0.634 6.163 1.901s2.851 2.995 3.427 5.184h-5.414c-0.403-0.845-0.979-1.488-1.728-1.93-0.73-0.442-1.565-0.662-2.506-0.662-1.517 0-2.746 0.528-3.686 1.584s-1.411 2.467-1.411 4.234c0 1.766 0.47 3.178 1.411 4.234s2.17 1.584 3.686 1.584c0.941 0 1.776-0.221 2.506-0.662 0.749-0.442 1.325-1.085 1.728-1.93h5.414c-0.576 2.189-1.718 3.917-3.427 5.184-1.709 1.248-3.763 1.872-6.163 1.872-1.958 0-3.715-0.432-5.27-1.296-1.536-0.883-2.736-2.102-3.6-3.658s-1.296-3.331-1.296-5.328zM175.738 25.6l-6.797-8.928v8.928h-4.925v-20.218h4.925v8.87l6.739-8.87h5.789l-7.834 9.907 8.122 10.31h-6.019z"></path>
</symbol>
<symbol id="icon-chevron-left" viewBox="0 0 32 32">
<path stroke-linejoin="round" stroke-linecap="round" stroke-miterlimit="4" stroke-width="3.5556" d="M20 24l-8-8 8-8"></path>
</symbol>
<symbol id="icon-chevron-right" viewBox="0 0 32 32">
<path stroke-linejoin="round" stroke-linecap="round" stroke-miterlimit="4" stroke-width="3.5556" d="M12 24l8-8-8-8"></path>
</symbol>
<symbol id="icon-edit-2" viewBox="0 0 32 32">
<path stroke-linejoin="round" stroke-linecap="round" stroke-miterlimit="4" stroke-width="3.6" d="M22.666 4c0.35-0.35 0.766-0.628 1.223-0.817s0.948-0.287 1.443-0.287c0.495 0 0.986 0.098 1.443 0.287s0.873 0.467 1.224 0.817 0.628 0.766 0.817 1.223c0.19 0.458 0.287 0.948 0.287 1.443s-0.098 0.986-0.287 1.443c-0.189 0.458-0.467 0.873-0.817 1.223l-18 18-7.333 2 2-7.333 18-18z"></path>
</symbol>
<symbol id="icon-eye" viewBox="0 0 32 32">
<path stroke-linejoin="round" stroke-linecap="round" stroke-miterlimit="4" stroke-width="2.88" d="M1.333 16c0 0 5.333-10.667 14.667-10.667s14.667 10.667 14.667 10.667c0 0-5.333 10.667-14.667 10.667s-14.667-10.667-14.667-10.667z"></path>
<path stroke-linejoin="round" stroke-linecap="round" stroke-miterlimit="4" stroke-width="2.88" d="M16 20c2.209 0 4-1.791 4-4s-1.791-4-4-4c-2.209 0-4 1.791-4 4s1.791 4 4 4z"></path>
</symbol>
<symbol id="icon-eye-off" viewBox="0 0 32 32">
<path stroke-linejoin="round" stroke-linecap="round" stroke-miterlimit="4" stroke-width="2.88" d="M23.92 23.92c-2.279 1.737-5.055 2.7-7.92 2.747-9.333 0-14.667-10.667-14.667-10.667 1.659-3.091 3.959-5.791 6.747-7.92M13.2 5.653c0.918-0.215 1.857-0.322 2.8-0.32 9.333 0 14.667 10.667 14.667 10.667-0.809 1.514-1.775 2.94-2.88 4.253M18.826 18.827c-0.366 0.393-0.808 0.708-1.298 0.927s-1.020 0.336-1.557 0.346-1.071-0.089-1.569-0.291c-0.498-0.201-0.951-0.5-1.33-0.88s-0.679-0.832-0.88-1.33c-0.201-0.498-0.3-1.032-0.29-1.569s0.127-1.067 0.346-1.557 0.534-0.932 0.927-1.298"></path>
<path stroke-linejoin="round" stroke-linecap="round" stroke-miterlimit="4" stroke-width="2.88" d="M1.333 1.333l29.333 29.333"></path>
</symbol>
<symbol id="icon-log-out" viewBox="0 0 32 32">
<path stroke-linejoin="round" stroke-linecap="round" stroke-miterlimit="4" stroke-width="3" d="M12 28h-5.333c-0.707 0-1.386-0.281-1.886-0.781s-0.781-1.178-0.781-1.886v-18.667c0-0.707 0.281-1.386 0.781-1.886s1.178-0.781 1.886-0.781h5.333"></path>
<path stroke-linejoin="round" stroke-linecap="round" stroke-miterlimit="4" stroke-width="3" d="M21.334 22.667l6.667-6.667-6.667-6.667"></path>
<path stroke-linejoin="round" stroke-linecap="round" stroke-miterlimit="4" stroke-width="3" d="M28 16h-16"></path>
</symbol>
<symbol id="icon-mage_water-glass-fill" viewBox="0 0 31 32">
<path fill="#9be1a0" style="fill: var(--color1, #9be1a0)" d="M26.955 5.226c-0.095-0.321-0.254-0.616-0.468-0.868s-0.477-0.452-0.772-0.589c-0.293-0.142-0.613-0.214-0.937-0.21h-18.216c-0.323-0.019-0.646 0.049-0.937 0.197-0.301 0.139-0.57 0.345-0.785 0.604-0.214 0.251-0.374 0.546-0.468 0.866-0.098 0.318-0.128 0.654-0.089 0.984l2.076 18.377c0.139 1.258 0.722 2.415 1.633 3.255 0.891 0.839 2.050 1.307 3.253 1.313h8.861c1.207-0.005 2.37-0.473 3.266-1.313 0.899-0.848 1.475-2.004 1.62-3.255l1.127-10.331v-0.158l0.873-7.876c0.049-0.332 0.036-0.671-0.038-0.998zM14.17 25.375h-1.266c-0.82-0.047-1.601-0.38-2.215-0.945-0.612-0.572-1.015-1.347-1.139-2.192l-0.304-2.258c-0.039-0.344 0.053-0.691 0.258-0.965s0.504-0.455 0.835-0.503 0.667 0.040 0.936 0.246c0.269 0.206 0.45 0.512 0.503 0.854l0.304 2.232c0.034 0.244 0.151 0.467 0.329 0.63 0.177 0.168 0.406 0.266 0.646 0.276h1.266c0.336 0 0.658 0.138 0.895 0.384s0.371 0.58 0.371 0.928-0.133 0.682-0.371 0.928c-0.237 0.246-0.559 0.384-0.895 0.384h-0.152zM24.297 13.259c-2.671 0.538-4.949 0.643-7.367-1.313-3-2.455-6.633-1.667-10.127-0.381l-0.633-5.566c-0.012-0.056-0.012-0.114 0-0.171 0.017-0.055 0.048-0.105 0.089-0.144 0.030-0.048 0.074-0.085 0.127-0.105 0.050-0.015 0.102-0.015 0.152 0h18.38c0.047 0.028 0.090 0.063 0.127 0.105 0.038 0.039 0.063 0.091 0.076 0.144 0.019 0.060 0.019 0.124 0 0.184l-0.823 7.246z"></path>
</symbol>
<symbol id="icon-pie-chart-02" viewBox="0 0 32 32">
<path fill="none" stroke="#323f47" style="stroke: var(--color2, #323f47)" stroke-linejoin="round" stroke-linecap="round" stroke-miterlimit="4" stroke-width="2.6667" d="M22.933 18.667c0.369 0 0.554 0 0.704 0.082 0.123 0.068 0.238 0.195 0.293 0.324 0.067 0.157 0.050 0.324 0.016 0.659-0.174 1.733-0.77 3.404-1.744 4.861-1.172 1.754-2.838 3.121-4.787 3.929s-4.094 1.019-6.163 0.607c-2.069-0.412-3.97-1.428-5.462-2.919s-2.508-3.392-2.919-5.461c-0.412-2.069-0.2-4.214 0.607-6.163s2.175-3.615 3.929-4.787c1.457-0.974 3.128-1.57 4.861-1.744 0.334-0.034 0.502-0.050 0.659 0.016 0.13 0.055 0.257 0.17 0.324 0.293 0.082 0.15 0.082 0.334 0.082 0.704v8.533c0 0.373 0 0.56 0.073 0.703 0.064 0.125 0.166 0.227 0.291 0.291 0.143 0.073 0.329 0.073 0.703 0.073h8.533z"></path>
<path fill="none" stroke="#9be1a0" style="stroke: var(--color1, #9be1a0)" stroke-linejoin="round" stroke-linecap="round" stroke-miterlimit="4" stroke-width="2.6667" d="M18.667 3.733c0-0.369 0-0.554 0.082-0.704 0.068-0.123 0.195-0.238 0.324-0.293 0.157-0.067 0.324-0.050 0.659-0.016 2.438 0.245 4.73 1.323 6.478 3.071s2.826 4.040 3.071 6.478c0.033 0.334 0.050 0.502-0.016 0.659-0.055 0.13-0.17 0.257-0.293 0.324-0.15 0.082-0.334 0.082-0.704 0.082h-8.533c-0.373 0-0.56 0-0.703-0.073-0.125-0.064-0.227-0.166-0.291-0.291-0.073-0.143-0.073-0.329-0.073-0.703v-8.533z"></path>
</symbol>
<symbol id="icon-settings" viewBox="0 0 32 32">
<path stroke-linejoin="round" stroke-linecap="round" stroke-miterlimit="4" stroke-width="3" d="M16 20c2.209 0 4-1.791 4-4s-1.791-4-4-4c-2.209 0-4 1.791-4 4s1.791 4 4 4z"></path>
<path stroke-linejoin="round" stroke-linecap="round" stroke-miterlimit="4" stroke-width="3" d="M25.867 20c-0.178 0.402-0.231 0.848-0.152 1.281s0.285 0.832 0.592 1.146l0.080 0.080c0.248 0.248 0.445 0.542 0.579 0.865s0.203 0.671 0.203 1.021c0 0.35-0.069 0.697-0.203 1.021s-0.331 0.618-0.579 0.865c-0.248 0.248-0.542 0.445-0.866 0.579s-0.671 0.203-1.021 0.203c-0.35 0-0.697-0.069-1.021-0.203s-0.618-0.331-0.865-0.579l-0.080-0.080c-0.314-0.307-0.713-0.514-1.146-0.592s-0.879-0.025-1.281 0.152c-0.394 0.169-0.731 0.45-0.968 0.807s-0.364 0.777-0.366 1.206v0.227c0 0.707-0.281 1.386-0.781 1.886s-1.178 0.781-1.886 0.781-1.386-0.281-1.886-0.781c-0.5-0.5-0.781-1.178-0.781-1.886v-0.12c-0.010-0.441-0.153-0.869-0.41-1.228s-0.616-0.633-1.030-0.785c-0.402-0.178-0.848-0.231-1.281-0.152s-0.832 0.285-1.146 0.592l-0.080 0.080c-0.248 0.248-0.542 0.445-0.865 0.579s-0.671 0.203-1.021 0.203c-0.35 0-0.697-0.069-1.021-0.203s-0.618-0.331-0.865-0.579c-0.248-0.248-0.445-0.542-0.579-0.866s-0.203-0.671-0.203-1.021c0-0.35 0.069-0.697 0.203-1.021s0.331-0.618 0.579-0.865l0.080-0.080c0.307-0.314 0.514-0.713 0.592-1.146s0.025-0.879-0.152-1.281c-0.169-0.394-0.45-0.731-0.807-0.968s-0.777-0.364-1.206-0.366h-0.227c-0.707 0-1.386-0.281-1.886-0.781s-0.781-1.178-0.781-1.886c0-0.707 0.281-1.386 0.781-1.886s1.178-0.781 1.886-0.781h0.12c0.441-0.010 0.869-0.153 1.228-0.41s0.633-0.616 0.785-1.030c0.178-0.402 0.23-0.848 0.152-1.281s-0.285-0.832-0.592-1.146l-0.080-0.080c-0.248-0.248-0.445-0.542-0.579-0.866s-0.203-0.671-0.203-1.021c0-0.35 0.069-0.697 0.203-1.021s0.331-0.618 0.579-0.865c0.248-0.248 0.542-0.445 0.865-0.579s0.671-0.203 1.021-0.203c0.35 0 0.697 0.069 1.021 0.203s0.618 0.331 0.866 0.579l0.080 0.080c0.314 0.307 0.713 0.514 1.146 0.592s0.879 0.025 1.281-0.152h0.107c0.394-0.169 0.731-0.45 0.968-0.807s0.364-0.777 0.366-1.206v-0.227c0-0.707 0.281-1.386 0.781-1.886s1.178-0.781 1.886-0.781c0.707 0 1.386 0.281 1.886 0.781s0.781 1.178 0.781 1.886v0.12c0.002 0.429 0.129 0.848 0.366 1.206s0.573 0.638 0.968 0.807c0.402 0.177 0.848 0.23 1.281 0.152s0.832-0.285 1.146-0.592l0.080-0.080c0.248-0.248 0.542-0.445 0.865-0.579s0.671-0.203 1.021-0.203c0.35 0 0.697 0.069 1.021 0.203s0.618 0.331 0.865 0.579c0.248 0.248 0.445 0.542 0.579 0.865s0.203 0.671 0.203 1.021c0 0.35-0.069 0.697-0.203 1.021s-0.331 0.618-0.579 0.865l-0.080 0.080c-0.307 0.314-0.514 0.713-0.592 1.146s-0.025 0.879 0.152 1.281v0.107c0.169 0.394 0.45 0.731 0.807 0.968s0.777 0.364 1.206 0.366h0.227c0.707 0 1.386 0.281 1.886 0.781s0.781 1.178 0.781 1.886-0.281 1.386-0.781 1.886c-0.5 0.5-1.178 0.781-1.886 0.781h-0.12c-0.429 0.002-0.848 0.129-1.206 0.366s-0.638 0.573-0.807 0.968z"></path>
</symbol>
<symbol id="icon-trash-04" viewBox="0 0 32 32">
<path stroke-linejoin="round" stroke-linecap="round" stroke-miterlimit="4" stroke-width="3" d="M12 4h8"></path>
<path stroke-linejoin="round" stroke-linecap="round" stroke-miterlimit="4" stroke-width="3.6" d="M4 8h24M25.333 8l-0.935 14.026c-0.14 2.104-0.21 3.156-0.665 3.954-0.4 0.702-1.004 1.267-1.731 1.62-0.826 0.4-1.881 0.4-3.99 0.4h-4.025c-2.109 0-3.163 0-3.99-0.4-0.727-0.353-1.331-0.917-1.731-1.62-0.455-0.798-0.525-1.85-0.665-3.954l-0.935-14.026"></path>
</symbol>
<symbol id="icon-upload" viewBox="0 0 32 32">
<path stroke-linejoin="round" stroke-linecap="round" stroke-miterlimit="4" stroke-width="2.88" d="M28 20v5.333c0 0.707-0.281 1.386-0.781 1.886s-1.178 0.781-1.886 0.781h-18.667c-0.707 0-1.386-0.281-1.886-0.781s-0.781-1.178-0.781-1.886v-5.333"></path>
<path stroke-linejoin="round" stroke-linecap="round" stroke-miterlimit="4" stroke-width="2.88" d="M22.666 10.667l-6.667-6.667-6.667 6.667"></path>
<path stroke-linejoin="round" stroke-linecap="round" stroke-miterlimit="4" stroke-width="2.88" d="M16 4v16"></path>
</symbol>
<symbol id="ellipse" viewBox="0 0 32 32">
<path d="M32 16c0 8.837-7.163 16-16 16s-16-7.163-16-16c0-8.837 7.163-16 16-16s16 7.163 16 16z"></path>
</symbol>
<symbol id="icon-x" viewBox="0 0 32 32">
<path stroke-linejoin="round" stroke-linecap="round" stroke-miterlimit="4" stroke-width="3.4286" d="M24 8l-16 16"></path>
<path stroke-linejoin="round" stroke-linecap="round" stroke-miterlimit="4" stroke-width="3.4286" d="M8 8l16 16"></path>
</symbol>
</defs>
</svg>
